<svg width="32" height="32" viewBox="0 0 32 32" fill="none" xmlns="http://www.w3.org/2000/svg">
<path d="M21 6H11C8.23858 6 6 8.23858 6 11V21C6 23.7614 8.23858 26 11 26H21C23.7614 26 26 23.7614 26 21V11C26 8.23858 23.7614 6 21 6Z" stroke="black" stroke-width="2" stroke-linecap="round" stroke-linejoin="round"/>
<path d="M19.9997 15.3698C20.1231 16.2021 19.981 17.052 19.5935 17.7988C19.206 18.5456 18.5929 19.1512 17.8413 19.5295C17.0898 19.9077 16.2382 20.0394 15.4075 19.9057C14.5768 19.7721 13.8095 19.3799 13.2145 18.785C12.6196 18.1901 12.2274 17.4227 12.0938 16.592C11.9601 15.7614 12.0918 14.9097 12.47 14.1582C12.8483 13.4067 13.4539 12.7936 14.2007 12.4061C14.9475 12.0186 15.7975 11.8764 16.6297 11.9998C17.4786 12.1257 18.2646 12.5213 18.8714 13.1281C19.4782 13.735 19.8738 14.5209 19.9997 15.3698Z" stroke="black" stroke-width="2" stroke-linecap="round" stroke-linejoin="round"/>
<path d="M21.5 10.5H21.51" stroke="black" stroke-width="2" stroke-linecap="round" stroke-linejoin="round"/>
</svg>
