<svg width="32" height="32" viewBox="0 0 32 32" fill="none" xmlns="http://www.w3.org/2000/svg">
<path d="M27 6.9998C26.0424 7.67528 24.9821 8.19191 23.86 8.5298C23.2577 7.83731 22.4573 7.34649 21.567 7.12373C20.6767 6.90096 19.7395 6.957 18.8821 7.28426C18.0247 7.61151 17.2884 8.1942 16.773 8.95352C16.2575 9.71283 15.9877 10.6121 16 11.5298V12.5298C14.2426 12.5754 12.5013 12.1856 10.931 11.3952C9.36074 10.6049 8.01032 9.43844 7 7.9998C7 7.9998 3 16.9998 12 20.9998C9.94053 22.3978 7.48716 23.0987 5 22.9998C14 27.9998 25 22.9998 25 11.4998C24.9991 11.2213 24.9723 10.9434 24.92 10.6698C25.9406 9.6633 26.6608 8.39251 27 6.9998Z" stroke="black" stroke-width="2" stroke-linecap="round" stroke-linejoin="round"/>
</svg>
